<svg xmlns="http://www.w3.org/2000/svg" xmlns:xlink="http://www.w3.org/1999/xlink" version="1.1" x="0px" y="0px" viewBox="0 0 10 12.5" enable-background="new 0 0 10 10" xml:space="preserve"><g><path d="M5.001,5.46c-1.061,0-1.637,0.198-1.637,0.301c0,0.102,0.576,0.302,1.637,0.302c1.059,0,1.637-0.2,1.637-0.302   C6.638,5.658,6.06,5.46,5.001,5.46z"/><path d="M6.858,4.96V4.725c0-0.605-0.493-1.099-1.1-1.099H4.241c-0.605,0-1.099,0.493-1.099,1.099V4.96   c0.578-0.064,1.225-0.098,1.858-0.098C5.634,4.862,6.28,4.896,6.858,4.96z M5.622,4.386h0.291c0.042,0,0.075,0.035,0.075,0.076   S5.955,4.537,5.913,4.537H5.622c-0.043,0-0.075-0.034-0.075-0.075S5.579,4.386,5.622,4.386z M4.305,4.185H4.013   c-0.042,0-0.075-0.034-0.075-0.076c0-0.041,0.033-0.075,0.075-0.075h0.292c0.041,0,0.075,0.034,0.075,0.075   C4.38,4.15,4.346,4.185,4.305,4.185z"/><path d="M5.001,5.013c-1.32,0-2.348,0.131-2.981,0.297h0.173c0.043,0,0.076,0.034,0.076,0.074c0,0.043-0.033,0.076-0.076,0.076   h-0.29c-0.042,0-0.076-0.033-0.076-0.076c0-0.008,0.002-0.014,0.005-0.021c-0.349,0.108-0.537,0.227-0.537,0.33   c0,0.285,1.411,0.682,3.707,0.682c2.295,0,3.705-0.396,3.705-0.682C8.706,5.408,7.296,5.013,5.001,5.013z M2.634,5.769H2.342   c-0.04,0-0.074-0.033-0.074-0.076c0-0.041,0.034-0.074,0.074-0.074h0.292c0.041,0,0.075,0.033,0.075,0.074   C2.709,5.735,2.675,5.769,2.634,5.769z M5.001,6.212c-0.619,0-1.788-0.094-1.788-0.451S4.382,5.31,5.001,5.31   c0.618,0,1.787,0.094,1.787,0.451S5.619,6.212,5.001,6.212z M7.079,5.46c-0.041,0-0.074-0.033-0.074-0.076   c0-0.04,0.033-0.074,0.074-0.074h0.293c0.041,0,0.074,0.034,0.074,0.074c0,0.043-0.033,0.076-0.074,0.076H7.079z M7.749,5.835   H7.457c-0.042,0-0.075-0.033-0.075-0.074c0-0.042,0.033-0.075,0.075-0.075h0.292c0.041,0,0.075,0.033,0.075,0.075   C7.824,5.802,7.79,5.835,7.749,5.835z"/></g><text x="0" y="25" fill="#000000" font-size="5px" font-weight="bold" font-family="'Helvetica Neue', Helvetica, Arial-Unicode, Arial, Sans-serif">Created by verry poernomo</text><text x="0" y="30" fill="#000000" font-size="5px" font-weight="bold" font-family="'Helvetica Neue', Helvetica, Arial-Unicode, Arial, Sans-serif">from the Noun Project</text></svg>